<svg xmlns="http://www.w3.org/2000/svg" viewBox="0 0 99.65 22.68"><defs><style>.cls-1{fill:#1d1d1b;}</style></defs><title>Recurso 1</title><g id="Capa_2" data-name="Capa 2"><g id="Otros_datos_de_interes" data-name="Otros datos de interes"><g id="Textos"><path id="Podcasts" class="cls-1" d="M6.8,22.1v-.49a2.12,2.12,0,0,0-.13-.72,3.19,3.19,0,1,0-4,0,2.12,2.12,0,0,0-.13.72v.49a4.25,4.25,0,1,1,4.25,0ZM4.68,15.77a2.65,2.65,0,0,1,1.75,4.64,2.13,2.13,0,0,0-.82-.7,1.59,1.59,0,1,0-1.87,0,2.13,2.13,0,0,0-.82.7,2.65,2.65,0,0,1,1.75-4.64ZM3.61,18.43a1.06,1.06,0,1,1,1.06,1.06A1.06,1.06,0,0,1,3.61,18.43ZM4.68,20a1.59,1.59,0,0,1,1.59,1.59v1.06H3.08V21.61A1.59,1.59,0,0,1,4.68,20Z"/><path id="Balonecsto" class="cls-1" d="M27.38,22.68a4.25,4.25,0,1,1,4.23-4.25A4.25,4.25,0,0,1,27.38,22.68Zm1.52-4.6-.1,0a2.56,2.56,0,0,1-1.63.18,5.82,5.82,0,0,1-1.68-.71c-.34-.19-.67-.4-1-.57a.5.5,0,0,0-.75.37,5.18,5.18,0,0,0-.13.72,3.59,3.59,0,0,0,.53,2.27.47.47,0,0,0,.28.21,2.76,2.76,0,0,0,.83,0,11.85,11.85,0,0,0,1.55-.35,9.5,9.5,0,0,0,2.38-1.16s.08-.1.07-.14C29.13,18.68,29,18.38,28.9,18.07Zm-.1-.19a8.41,8.41,0,0,0-1.34-2.15,3.17,3.17,0,0,0-1-.81.53.53,0,0,0-.45-.05,3.93,3.93,0,0,0-1.54,1.07,2.84,2.84,0,0,0-.52.78,3.25,3.25,0,0,1,.61.12,5.24,5.24,0,0,1,.71.38,5.72,5.72,0,0,0,2,.88A2.18,2.18,0,0,0,28.8,17.88Zm.53,1.39-.14.08a10.66,10.66,0,0,1-2,1,6.52,6.52,0,0,1-1.78.47c-.33,0-.66,0-1,0a.27.27,0,0,0,0,.06l.06.07a3.78,3.78,0,0,0,2.94,1.27.38.38,0,0,0,.33-.15c.13-.18.25-.37.37-.56A6.1,6.1,0,0,1,29.4,20a.16.16,0,0,0,.06-.12C29.43,19.67,29.38,19.48,29.33,19.26Zm-2.7-4.56A7.62,7.62,0,0,1,29,17.77a1.36,1.36,0,0,0,.62-1.3,3,3,0,0,0-.44-1.29A.44.44,0,0,0,29,15a3.62,3.62,0,0,0-1.66-.39A6.53,6.53,0,0,0,26.62,14.7Zm2.81,4.23c.23-.18.44-.34.63-.52a2.89,2.89,0,0,0,.8-.92c.18-.45-.26-1-.5-1.34a3.28,3.28,0,0,0-.89-.85c.43,1,.6,1.93-.4,2.67ZM31,17.61a5.63,5.63,0,0,1-1.47,1.48.16.16,0,0,0,0,.13c0,.2.1.41.14.55s.83.18,1,.53c.31-.21.44-.94.48-1.29A2.47,2.47,0,0,0,31,17.61Zm-1.48,2.59A17.69,17.69,0,0,0,28,22.13h.08a4.08,4.08,0,0,0,1.17-.42.48.48,0,0,0,.31-.43C29.56,20.93,29.55,20.57,29.55,20.21Zm.19,1.1.06,0,.45-.48c.23-.26.23-.36,0-.63l-.08-.09a.39.39,0,0,0-.44-.08C29.75,20.48,29.75,20.89,29.75,21.31Z"/><path id="Cine" class="cls-1" d="M94.32,0a3.2,3.2,0,1,0,3.2,3.2A3.2,3.2,0,0,0,94.32,0Zm0,.62c.49,0,.72.12.72.51s-.57.76-.72.76-.72-.37-.72-.76S93.83.62,94.32.62ZM92.19,3.3c-.37-.12-.42-.38-.26-.85s.34-.65.71-.53.54.78.49.92S92.56,3.42,92.19,3.3Zm1.55,2c-.21.33-.47.3-.89,0s-.54-.5-.33-.82a1,1,0,0,1,1-.24A1,1,0,0,1,93.73,5.28Zm.59-1.6a.48.48,0,1,1,.48-.48A.48.48,0,0,1,94.32,3.68Zm1.5,1.6c-.4.29-.66.32-.89,0a1,1,0,0,1,.15-1,1,1,0,0,1,1,.19C96.34,4.75,96.23,5,95.82,5.27Zm.63-2c-.37.12-.89-.31-.94-.46s.13-.8.49-.92.56.06.71.53S96.82,3.18,96.45,3.3Zm3,4.53-.22.67c-.05,0-1.31-.45-1.31-1.58,0-1.34,1.06-1.66,1.06-2.85a2.49,2.49,0,0,0-1.15-1.63,3.53,3.53,0,0,0-.53-1.24c1.11.68,2.39,1.72,2.39,2.87a2.69,2.69,0,0,1-.59,1.61,2,2,0,0,0-.47,1.24C98.58,7.54,99.4,7.83,99.4,7.83Z"/><path id="Running" class="cls-1" d="M73.59,15.06a.89.89,0,1,1,.89.89A.89.89,0,0,1,73.59,15.06Zm2.83,2.66H75.19l-1-1.31,0,0a.18.18,0,0,0-.06-.07l-.71-.35h-.05L72,15.27a.35.35,0,0,0-.36,0l-1.42,1.06a.35.35,0,1,0,.43.57L71.86,16l.94.45-1.12,1.8a.64.64,0,0,0,.21.89l1.6,1.1,0,0-.95,1.9a.35.35,0,1,0,.63.32l1.06-2.13a.35.35,0,0,0-.07-.41l-1.11-1.11L74,17.3l.72,1a.35.35,0,0,0,.29.15h1.42a.35.35,0,0,0,0-.71ZM71.33,19l-.43.85H69a.35.35,0,0,0,0,.71h2.13a.33.33,0,0,0,.25-.1h0l0,0,.71-.71-.43-.28A1,1,0,0,1,71.33,19Z"/><path id="Trekking" class="cls-1" d="M49.5,15.06a.89.89,0,1,1,.89.89A.89.89,0,0,1,49.5,15.06Zm-1.13,3c.11-.32.64-2.13.64-2.13a1.68,1.68,0,0,0-1.2.32A2.48,2.48,0,0,0,47,17.68c-.07.43.25.57.6.67A.56.56,0,0,0,48.37,18.07ZM53,16.85a.35.35,0,0,0-.32-.19V16.3h-.35v.49l-1,.49-.88-.91h0a.51.51,0,0,0-.21-.14L49.36,16l-.67,2.3a1,1,0,0,0,.35,1.1l1.17,1v1.94a.35.35,0,1,0,.71,0V20.2a.35.35,0,0,0-.1-.25l-.06-.06-.83-1.08.38-1.58L51,18a.35.35,0,0,0,.41.07l.9-.45v5.1h.35V17.4l.16-.08A.35.35,0,0,0,53,16.85Zm-4.39,2.5-.18,1.13h0l-.68,1.71a.35.35,0,0,0,.2.46l.13,0a.35.35,0,0,0,.33-.22l.68-1.71a.37.37,0,0,0,.05-.13l.14-.5C48.83,19.74,48.62,19.59,48.62,19.35Z"/><path id="Fotografía" class="cls-1" d="M50,3.19a1.59,1.59,0,1,0,1.59,1.59A1.59,1.59,0,0,0,50,3.19Zm4.25-1.59H53a.47.47,0,0,1-.42-.3l-.33-1a.47.47,0,0,0-.42-.3H48.22a.47.47,0,0,0-.42.3l-.33,1a.47.47,0,0,1-.42.3H45.78a1.07,1.07,0,0,0-1.06,1.06V7.44A1.07,1.07,0,0,0,45.78,8.5h8.5a1.07,1.07,0,0,0,1.06-1.06V2.66A1.07,1.07,0,0,0,54.28,1.59ZM50,7.44a2.66,2.66,0,1,1,2.66-2.66A2.66,2.66,0,0,1,50,7.44Zm3.88-4A.37.37,0,1,1,54.28,3,.37.37,0,0,1,53.91,3.4Z"/><path id="Viajar" class="cls-1" d="M76.49,1.42H76V8.5h.47a1,1,0,0,0,.94-.94V2.36A1,1,0,0,0,76.49,1.42ZM68,2.36v5.2a1,1,0,0,0,.94.94h.47V1.42h-.47A1,1,0,0,0,68,2.36ZM74.36.43A3.77,3.77,0,0,0,72.7,0a3.67,3.67,0,0,0-1.64.43v1H69.87V8.5h5.67V1.42H74.36Zm-.71,1H71.76V.79A2.12,2.12,0,0,1,72.7.57a2.2,2.2,0,0,1,1,.22Z"/><path id="Leer" class="cls-1" d="M32,2.57c0-.33-.05-.9.26-1.09h0c.25-.08.43-.19.29-.35L28.88,0l-6,.84s-.69.1-.63,1.17a1.38,1.38,0,0,0,.38,1l-.49.15c-.14.15,0,.26.29.35h0c.31.19.3.76.26,1.09C21.58,4.92,22,5,22,5l.24.06a1.17,1.17,0,0,0-.31,1c.06,1.07.63,1.14.63,1.14L26.47,8.5,32.4,7.07s.4-.1-.71-.42c0-.33-.05-.9.26-1.09h0c.25-.08.43-.19.29-.35L32,5.12c.17-.1.43-.37.47-1.08a1.25,1.25,0,0,0-.24-.93L32.73,3S33.13,2.88,32,2.57Zm-5,0,1-.21,3.37-.69.5-.1a1.74,1.74,0,0,0-.13,1c0,.06,0,.11,0,.15l-.55.14L27,3.86Zm-4.29,1,.5.1,3.24.67.28.06h0l.85.17,0,1.3L23.32,4.81l-.43-.11,0-.15A1.74,1.74,0,0,0,22.78,3.6ZM22.58,2a.84.84,0,0,1,.15-.59.27.27,0,0,1,.19-.08h0l2.59.84,1.29.42,0,1.31-3.62-1L23,2.79h0S22.6,2.75,22.58,2Zm3.9,6L22.66,6.87h0s-.37,0-.39-.83a.84.84,0,0,1,.15-.59.27.27,0,0,1,.19-.08h0l3.88,1.26Zm5-1.35c0,.06,0,.11,0,.15l-4.81,1.2,0-1.3,1-.21.15,0,.57-.18,2.62-.54.5-.1A1.74,1.74,0,0,0,31.48,6.59Zm.26-1.77h0l-.36.1-3.45,1,0-1.31L29,4.22l2.74-.89A.29.29,0,0,1,32,3.4a.84.84,0,0,1,.15.59C32.11,4.79,31.75,4.82,31.74,4.82Z"/><path id="Ciclismo" class="cls-1" d="M91.56,16.33a1.87,1.87,0,0,1,2.09-1l-1.63,2S91.31,17,91.56,16.33Zm3.81,2.33a.35.35,0,0,0-.19-.21h0l0,0-1.16-.5,1.13-1.37,2.34.78.11,0a.35.35,0,0,0,.11-.69l-2.24-.75a.89.89,0,1,0-.84-.28l-.12,0h0l-.05,0h-.08a.62.62,0,0,0-.42.17c-.18.21-.32.35-.53.6-.39.46-.6.74-.78,1s-.32.5-.14.81a1.32,1.32,0,0,0,.85.53l1.53.49L95.4,21a.35.35,0,0,0,.34.24l.11,0a.35.35,0,0,0,.22-.45Zm4.27,1A1.59,1.59,0,1,1,98,18.07,1.59,1.59,0,0,1,99.64,19.67Zm-.53,0A1.06,1.06,0,1,0,98,20.73,1,1,0,0,0,99.11,19.67Zm-4.78,1.42a1.59,1.59,0,1,1-1.59-1.59A1.59,1.59,0,0,1,94.32,21.08Zm-.53,0a1.06,1.06,0,1,0-1.06,1.06A1,1,0,0,0,93.79,21.08Z"/><path id="Informatica" class="cls-1" d="M8.5,5.1H.85V.85H8.5M8.5,0H.85A.85.85,0,0,0,0,.85V6a.85.85,0,0,0,.85.85h3L3,8.08V8.5h3.4V8.08L5.53,6.8h3A.85.85,0,0,0,9.35,6V.85A.85.85,0,0,0,8.5,0Z"/></g></g></g></svg>