<svg xmlns="http://www.w3.org/2000/svg" viewBox="0 0 207.93 217.46"><defs><style>.cls-1,.cls-2{fill:none;stroke-linecap:round;stroke-linejoin:round;stroke-width:0.5px;}.cls-1{stroke:#000;}.cls-2{stroke:#1d1d1b;}.cls-3{fill:#f0ad4e;}.cls-4{fill:#d9544f;}.cls-5{fill:#5bc0de;}.cls-6{fill:#5fb45d;}.cls-10,.cls-11,.cls-7,.cls-9{fill:#fff;}.cls-8{fill:#327ab8;}.cls-9{font-size:6px;}.cls-10,.cls-11,.cls-9{font-family:HelveticaNeue, Helvetica Neue;}.cls-10{font-size:4.3px;}.cls-11{font-size:5.5px;}</style></defs><title>Recurso 1</title><g id="Capa_2" data-name="Capa 2"><g id="Capa_1-2" data-name="Capa 1"><path class="cls-1" d="M130.73,119.05a14.17,14.17,0,1,1-14.17-14.17,14.17,14.17,0,0,1,14.17,14.17Z"/><path class="cls-2" d="M102.39,119.05a14.17,14.17,0,1,1,14.17,14.17,14.17,14.17,0,0,1-14.17-14.17Z"/><path class="cls-3" d="M53,183.75,33.11,204a119.06,119.06,0,0,0,16.44,13.49l16-23.43A90.71,90.71,0,0,1,53,183.75Z"/><path class="cls-4" d="M83.92,69.27a59.53,59.53,0,0,1,20.52-8.5l5.77,27.75A31.18,31.18,0,0,0,99.46,93"/><path class="cls-4" d="M116,59.53l.25,28.35a31.18,31.18,0,0,0-5.54.55l-5.29-27.85A59.53,59.53,0,0,1,116,59.53Z"/><path class="cls-4" d="M104.15,59.38a60.94,60.94,0,0,0-10.42,3.16L83.11,36.26a89.29,89.29,0,0,1,15.27-4.63Z"/><path class="cls-4" d="M92.75,63a60.94,60.94,0,0,0-9.6,5.13L67.6,44.38a89.29,89.29,0,0,1,14.07-7.52Z"/><path class="cls-4" d="M116,58.11a60.94,60.94,0,0,0-10.84,1.07L99.91,31.33a89.29,89.29,0,0,1,15.88-1.56Z"/><path class="cls-5" d="M162.24,80.89a59.53,59.53,0,0,0-45.16-21.36l-.25,28.35a31.18,31.18,0,0,1,23.66,11.19Z"/><path class="cls-5" d="M145.26,131.23a31.18,31.18,0,0,1-16.52,16.52l11.08,26.09a59.53,59.53,0,0,0,31.54-31.54Z"/><path class="cls-5" d="M171.75,141.35a59.53,59.53,0,0,0,4.1-27.62l-28.23,2.53a31.18,31.18,0,0,1-2.15,14.47Z"/><path class="cls-5" d="M175.75,112.7a59.53,59.53,0,0,0-12.84-31L140.84,99.48a31.18,31.18,0,0,1,6.73,16.24Z"/><path class="cls-5" d="M174.72,137.25q-.73,2.35-1.66,4.63l26.28,10.62q1.35-3.34,2.43-6.78Z"/><path class="cls-5" d="M205.49,127a89.29,89.29,0,0,0,0-16l-28.23,2.53a60.94,60.94,0,0,1,0,10.89Z"/><path class="cls-5" d="M176.44,107.68q.46,2.42.72,4.86l28.18-3q-.38-3.58-1.06-7.13Z"/><path class="cls-5" d="M204,100.87a89.29,89.29,0,0,0-4.63-15.27L173.07,96.22a60.94,60.94,0,0,1,3.16,10.42Z"/><path class="cls-5" d="M198.75,84.16A89.29,89.29,0,0,0,186.08,63L164,80.8a60.94,60.94,0,0,1,8.65,14.44Z"/><path class="cls-5" d="M185.09,61.8a89.29,89.29,0,0,0-67.75-32l-.25,28.35A60.94,60.94,0,0,1,163.33,80Z"/><path class="cls-5" d="M128.19,146.45a29.76,29.76,0,0,0-11.37-57.16l-.12,14.17a15.59,15.59,0,0,1,6,29.94Z"/><path class="cls-6" d="M127.71,146.65a29.76,29.76,0,0,1-27.47-2.71L108,132.09a15.59,15.59,0,0,0,14.39,1.42Z"/><path class="cls-6" d="M110.21,178.24a59.53,59.53,0,0,1-26.29-9.41l15.54-23.71a31.18,31.18,0,0,0,13.77,4.93Z"/><path class="cls-6" d="M138.86,174.24a59.53,59.53,0,0,1-27.62,4.1l2.53-28.23A31.18,31.18,0,0,0,128.24,148Z"/><path class="cls-6" d="M111.12,179.75a60.94,60.94,0,0,0,10.89,0L124.54,208a89.29,89.29,0,0,1-16,0Z"/><path class="cls-6" d="M107,207.83a89.29,89.29,0,0,1-23.92-6l10.62-26.28a60.94,60.94,0,0,0,16.33,4.09Z"/><path class="cls-6" d="M150,201.84a89.29,89.29,0,0,1-23.92,6l-3-28.18a60.94,60.94,0,0,0,16.33-4.09Z"/><path class="cls-6" d="M83.14,170a60.94,60.94,0,0,0,9.6,5.13L81.67,201.24a89.29,89.29,0,0,1-14.07-7.52Z"/><path class="cls-3" d="M99,144.82A31.18,31.18,0,0,1,86,125.4l-27.75,5.77a59.53,59.53,0,0,0,24.78,37.08Z"/><path class="cls-3" d="M56,112.55a60.94,60.94,0,0,1,4.09-16.33L33.77,85.6a89.29,89.29,0,0,0-6,23.92Z"/><path class="cls-3" d="M56.69,130.42a60.94,60.94,0,0,1-.83-16.81l-28.23-2.53a89.29,89.29,0,0,0,1.21,24.63Z"/><path class="cls-3" d="M82.26,169.43a60.94,60.94,0,0,1-19.2-21.18L38.18,161.83a89.29,89.29,0,0,0,28.12,31Z"/><path class="cls-3" d="M62.56,147.31a60.94,60.94,0,0,1-5.67-15.85l-27.75,5.77a89.29,89.29,0,0,0,8.31,23.22Z"/><path class="cls-5" d="M150.86,169.43l16,23.43a89.29,89.29,0,0,0,12.33-10.12l-19.87-20.22A60.94,60.94,0,0,1,150.86,169.43Z"/><path class="cls-5" d="M202.23,144.22a89.29,89.29,0,0,0,3.11-15.65l-28.18-3A60.94,60.94,0,0,1,175,136.23Z"/><path class="cls-5" d="M140.37,175.15l11.08,26.09a89.29,89.29,0,0,0,14.07-7.52L150,170A60.94,60.94,0,0,1,140.37,175.15Z"/><path class="cls-5" d="M172.66,142.86A60.94,60.94,0,0,1,160,161.77l20.22,19.87a89.29,89.29,0,0,0,18.51-27.7Z"/><path class="cls-5" d="M166.3,43.19a90.71,90.71,0,0,0-48.94-14.85L117.6,0a119.06,119.06,0,0,1,64.24,19.49Z"/><path class="cls-5" d="M186.17,60.9l21.75-18.17a119.06,119.06,0,0,0-24.36-22.08l-16,23.43A90.71,90.71,0,0,1,186.17,60.9Z"/><path class="cls-3" d="M2.33,152.61l27.2-8q-1-3.51-1.78-7.1L0,143.3Q1,148,2.33,152.61Z"/><path class="cls-3" d="M2.94,154.6q1.44,4.59,3.24,9L32.46,153q-1.37-3.39-2.47-6.89Z"/><path class="cls-3" d="M33.06,154.49,7,165.57q1.88,4.42,4.11,8.69l25.11-13.14Q34.49,157.87,33.06,154.49Z"/><path class="cls-3" d="M36.94,162.51,12.06,176.09q2.3,4.22,4.94,8.24L40.7,168.79Q38.69,165.72,36.94,162.51Z"/><path class="cls-3" d="M41.58,170.1l-23.43,16q2.7,4,5.72,7.72L45.94,176Q43.64,173.13,41.58,170.1Z"/><path class="cls-3" d="M46.95,177.21,25.19,195.38q3.08,3.69,6.45,7.12l20.22-19.87Q49.3,180,46.95,177.21Z"/><path class="cls-3" d="M66.78,86.41a59.53,59.53,0,0,0-8.7,43.74l27.85-5.29A31.18,31.18,0,0,1,90.48,102Z"/><path class="cls-3" d="M41.89,70.09a89.29,89.29,0,0,0-7.52,14.07L60.46,95.24a60.94,60.94,0,0,1,5.13-9.6Z"/><path class="cls-3" d="M91.67,102.73a29.76,29.76,0,0,0,8.14,40.92l8-11.72a15.59,15.59,0,0,1-4.26-21.44Z"/><path class="cls-4" d="M92,102.3a29.76,29.76,0,0,1,24.34-13l.12,14.17a15.59,15.59,0,0,0-12.75,6.82Z"/><path class="cls-4" d="M67.36,85.55a59.53,59.53,0,0,1,15.7-15.7L99,93.28a31.18,31.18,0,0,0-8.23,8.23Z"/><path class="cls-4" d="M54,55.36A89.29,89.29,0,0,1,66.31,45.24l16,23.43a60.94,60.94,0,0,0-8.42,6.91Z"/><path class="cls-4" d="M73.09,76.33a60.94,60.94,0,0,0-6.91,8.42l-23.43-16A89.29,89.29,0,0,1,52.87,56.47Z"/><path class="cls-7" d="M142.38,111c-.79-.79-1.38-.67-1.38-.67l-2.75,2.75-3.15,3.15-.55,2.6,2.6-.55,3.15-3.15,2.75-2.75S143.17,111.84,142.38,111ZM137,118l-.88.19a2.16,2.16,0,0,0-.88-.88l.19-.88.26-.26a2,2,0,0,1,1.58,1.58Z"/><path class="cls-7" d="M93.94,123.69h.77v.85h3.87s-.06-1.9-.09-2.49-.22-.91-.85-.91H96.27l-.51-1c-.14-.27-.19-.32-.5-.32H93.38c-.31,0-.36.05-.5.32l-.51,1H91c-.63,0-.83.35-.85.91s-.09,2.49-.09,2.49h3.87Zm-.62-3c.1-.18.13-.22.35-.22H95c.22,0,.25,0,.35.22l.24.46H93.08Zm1.38,5.14h-.77V125H90.28s.05.76.09,1.41a.67.67,0,0,0,.77.71h6.38a.67.67,0,0,0,.77-.71c0-.67.09-1.41.09-1.41H94.7Z"/><path class="cls-7" d="M108,94.8H103.7a.66.66,0,0,0-.66.66v7.18a.66.66,0,0,0,.66.66H108a.66.66,0,0,0,.66-.66V95.46A.66.66,0,0,0,108,94.8Zm-3.59,5.2a.48.48,0,1,1-.59.47A.54.54,0,0,1,104.45,100Zm-.59-.94a.61.61,0,1,1,.59.47A.54.54,0,0,1,103.86,99.05Zm.59,2.36a.48.48,0,1,1-.59.47A.54.54,0,0,1,104.45,101.41Zm1.42-1.42a.48.48,0,1,1-.59.47A.54.54,0,0,1,105.87,100Zm-.59-.94a.61.61,0,1,1,.59.47A.54.54,0,0,1,105.28,99.05Zm.59,2.36a.48.48,0,1,1-.59.47A.54.54,0,0,1,105.87,101.41Zm1.42-1.42a.48.48,0,1,1-.59.47A.54.54,0,0,1,107.29,100Zm-.59-.94a.61.61,0,1,1,.59.47A.54.54,0,0,1,106.7,99.05Zm.59,2.36a.48.48,0,1,1-.59.47A.54.54,0,0,1,107.29,101.41Zm-3.78-3.78V96.22h4.72v1.42Z"/><path class="cls-7" d="M117,138.27a5.59,5.59,0,0,0-5,.59,4.51,4.51,0,0,0-1.9,4.24c.34,1.7,2,2.77,4.27,2.15,2.44-.67,3-2.1,2.95-2.47s-1.23-.76-.79-1.62c.55-1.07,1.45-.53,1.84-.75S118.66,138.83,117,138.27Zm-1.69,4.95a.7.7,0,1,1,.48-.85A.69.69,0,0,1,115.31,143.22Z"/><path class="cls-8" d="M122.09,122.24l-1-1.49v-5.1a1.14,1.14,0,0,0-1.13-1.13h-6.8a1.14,1.14,0,0,0-1.13,1.13v5.1l-1,1.49a.73.73,0,0,0-.14.49V123a.61.61,0,0,0,.57.57h10.21a.61.61,0,0,0,.57-.57v-.28A.73.73,0,0,0,122.09,122.24Zm-7.23.21.34-.57h2.72l.34.57Zm5.1-2.27h-6.8v-4.54H120Z"/><text class="cls-9" transform="translate(169.92 157.28) rotate(33.75)">A</text><text class="cls-9" transform="translate(173.16 159.45) rotate(33.75)">r</text><text class="cls-9" transform="translate(174.73 160.5) rotate(33.75)">c</text><text class="cls-9" transform="translate(177.42 162.29) rotate(33.75)">G</text><text class="cls-9" transform="matrix(0.83, 0.56, -0.56, 0.83, 181.2, 164.82)">I</text><text class="cls-9" transform="translate(182.5 165.69) rotate(33.75)">S</text><text class="cls-9" transform="translate(146.65 179.88) rotate(61.88)">Q</text><text class="cls-9" transform="translate(148.8 183.92) rotate(61.88)">G</text><text class="cls-9" transform="translate(150.94 187.92) rotate(61.88)">I</text><text class="cls-9" transform="translate(151.67 189.29) rotate(61.87)">S</text><text class="cls-9" transform="translate(32.62 100.23) rotate(14.06)">M</text><text class="cls-9" transform="matrix(0.97, 0.24, -0.24, 0.97, 37.67, 101.5)">a</text><text class="cls-9" transform="translate(40.8 102.28) rotate(14.06)">c</text><text class="cls-9" transform="matrix(0.97, 0.24, -0.24, 0.97, 43.93, 103.07)"> </text><text class="cls-9" transform="translate(45.55 103.47) rotate(14.06)">O</text><text class="cls-9" transform="matrix(0.97, 0.24, -0.24, 0.97, 49.96, 104.58)">S</text><text class="cls-9" transform="translate(29.26 125.48) rotate(-2.81)">W</text><text class="cls-9" transform="translate(34.81 125.21) rotate(-2.81)">i</text><text class="cls-9" transform="translate(36.16 125.14) rotate(-2.81)">n</text><text class="cls-9" transform="translate(39.49 124.98) rotate(-2.81)">d</text><text class="cls-9" transform="translate(43.05 124.81) rotate(-2.81)">o</text><text class="cls-9" transform="translate(46.49 124.64) rotate(-2.81)">w</text><text class="cls-9" transform="translate(51.02 124.42) rotate(-2.81)">s</text><text class="cls-9" transform="matrix(0.86, -0.51, 0.51, 0.86, 173.18, 87.61)">3</text><text class="cls-9" transform="matrix(0.86, -0.51, 0.51, 0.86, 176.05, 85.89)">D</text><text class="cls-9" transform="matrix(0.86, -0.51, 0.51, 0.86, 179.67, 83.72)"> </text><text class="cls-9" transform="matrix(0.86, -0.51, 0.51, 0.86, 181.09, 82.87)">M</text><text class="cls-9" transform="matrix(0.86, -0.51, 0.51, 0.86, 185.57, 80.18)">a</text><text class="cls-9" transform="matrix(0.86, -0.51, 0.51, 0.86, 188.34, 78.52)">x</text><text class="cls-9" transform="translate(72.37 151.15) rotate(-33.75)">S</text><text class="cls-9" transform="translate(75.61 148.99) rotate(-33.75)">u</text><text class="cls-9" transform="translate(78.38 147.14) rotate(-33.75)">i</text><text class="cls-9" transform="translate(79.5 146.39) rotate(-33.75)">t</text><text class="cls-9" transform="matrix(0.83, -0.56, 0.56, 0.83, 81.07, 145.34)">e</text><text class="cls-9" transform="matrix(0.83, -0.56, 0.56, 0.83, 83.73, 143.56)">s</text><text class="cls-9" transform="translate(39.46 148.91) rotate(-19.69)">i</text><text class="cls-9" transform="translate(40.7 148.47) rotate(-19.69)">W</text><text class="cls-9" transform="translate(45.6 146.72) rotate(-19.69)">o</text><text class="cls-9" transform="translate(48.85 145.55) rotate(-19.69)">r</text><text class="cls-9" transform="matrix(0.94, -0.34, 0.34, 0.94, 50.73, 144.88)">k</text><text class="cls-9" transform="translate(55.82 176.99) rotate(-42.19)">O</text><text class="cls-9" transform="matrix(0.74, -0.67, 0.67, 0.74, 59.2, 173.93)">f</text><text class="cls-9" transform="matrix(0.74, -0.67, 0.67, 0.74, 60.44, 172.81)">f</text><text class="cls-9" transform="matrix(0.74, -0.67, 0.67, 0.74, 61.75, 171.62)">i</text><text class="cls-9" transform="matrix(0.74, -0.67, 0.67, 0.74, 62.74, 170.72)">c</text><text class="cls-9" transform="translate(65.12 168.57) rotate(-42.19)">e</text><text class="cls-9" transform="matrix(0.99, -0.15, 0.15, 0.99, 180.63, 111.71)">P</text><text class="cls-9" transform="matrix(0.99, -0.15, 0.15, 0.99, 184.46, 111.14)">i</text><text class="cls-9" transform="matrix(0.99, -0.15, 0.15, 0.99, 185.78, 110.95)">r</text><text class="cls-9" transform="translate(187.76 110.65) rotate(-8.44)">a</text><text class="cls-9" transform="matrix(0.99, -0.15, 0.15, 0.99, 190.97, 110.18)">n</text><text class="cls-9" transform="translate(194.25 109.69) rotate(-8.44)">e</text><text class="cls-9" transform="matrix(0.99, -0.15, 0.15, 0.99, 197.44, 109.22)">s</text><text class="cls-9" transform="translate(200.4 108.78) rotate(-8.44)">i</text><text class="cls-9" transform="translate(176.37 103.15) rotate(-16.87)">S</text><text class="cls-9" transform="translate(180.07 102.03) rotate(-16.88)">k</text><text class="cls-9" transform="matrix(0.96, -0.29, 0.29, 0.96, 183.07, 101.11)">e</text><text class="cls-9" transform="translate(186.14 100.18) rotate(-16.87)">t</text><text class="cls-9" transform="translate(187.96 99.63) rotate(-16.87)">c</text><text class="cls-9" transform="translate(191.05 98.69) rotate(-16.87)">h</text><text class="cls-9" transform="translate(194.23 97.73) rotate(-16.87)">U</text><text class="cls-9" transform="translate(198.37 96.47) rotate(-16.88)">p</text><text class="cls-9" transform="translate(155.79 105.12) rotate(-22.5)">3</text><text class="cls-9" transform="matrix(0.92, -0.38, 0.38, 0.92, 158.86, 103.85)">D</text><text class="cls-9" transform="matrix(0.99, 0.15, -0.15, 0.99, 155.72, 127.02)">B</text><text class="cls-9" transform="matrix(0.99, 0.15, -0.15, 0.99, 159.79, 127.63)">I</text><text class="cls-9" transform="matrix(0.99, 0.15, -0.15, 0.99, 161.32, 127.86)">M</text><text class="cls-9" transform="translate(184.89 121.19)">R<tspan x="4.12" y="0">e</tspan><tspan x="7.36" y="0">v</tspan><tspan x="10.34" y="0">i</tspan><tspan x="11.67" y="0">t</tspan></text><text class="cls-9" transform="translate(139.35 144.87) rotate(45)">S<tspan x="3.89" y="0">I</tspan><tspan x="5.43" y="0">G</tspan><tspan x="9.99" y="0">/</tspan><tspan x="11.98" y="0">G</tspan><tspan x="16.54" y="0">I</tspan><tspan x="18.08" y="0">S</tspan></text><text class="cls-9" transform="matrix(0.63, 0.77, -0.77, 0.63, 157.37, 172.15)">g</text><text class="cls-9" transform="translate(159.54 174.8) rotate(50.63)">v</text><text class="cls-9" transform="translate(161.46 177.13) rotate(50.63)">S</text><text class="cls-9" transform="translate(163.93 180.14) rotate(50.62)">I</text><text class="cls-9" transform="matrix(0.63, 0.77, -0.77, 0.63, 164.91, 181.33)">G</text><text class="cls-9" transform="matrix(0.98, 0.2, -0.2, 0.98, 177.82, 133.42)">A</text><text class="cls-9" transform="matrix(0.98, 0.2, -0.2, 0.98, 181.63, 134.18)">r</text><text class="cls-9" transform="matrix(0.98, 0.2, -0.2, 0.98, 183.48, 134.55)">c</text><text class="cls-9" transform="translate(186.64 135.17) rotate(11.25)">h</text><text class="cls-9" transform="translate(189.92 135.83) rotate(11.25)">i</text><text class="cls-9" transform="translate(191.22 136.09) rotate(11.25)">C</text><text class="cls-9" transform="translate(195.47 136.93) rotate(11.25)">A</text><text class="cls-9" transform="translate(199.28 137.69) rotate(11.25)">D</text><text class="cls-9" transform="translate(147.96 22.92) rotate(-73.13)">2</text><text class="cls-9" transform="translate(148.92 19.74) rotate(-73.12)">D</text><text class="cls-9" transform="translate(186.04 45.58) rotate(-47.81)">3</text><text class="cls-9" transform="translate(188.28 43.11) rotate(-47.81)">D</text><text class="cls-9" transform="translate(47.01 207.17) rotate(-50.62)">W</text><text class="cls-9" transform="matrix(0.63, -0.77, 0.77, 0.63, 50.32, 203.14)">o</text><text class="cls-9" transform="translate(52.5 200.48) rotate(-50.63)">r</text><text class="cls-9" transform="translate(53.7 199.02) rotate(-50.62)">d</text><text class="cls-9" transform="matrix(0.1, 1, -1, 0.1, 106.22, 35.89)">P</text><text class="cls-9" transform="translate(106.6 39.76) rotate(84.38)">r</text><text class="cls-9" transform="translate(106.78 41.63) rotate(84.38)">e</text><text class="cls-9" transform="matrix(0.1, 1, -1, 0.1, 107.1, 44.84)">s</text><text class="cls-9" transform="matrix(0.1, 1, -1, 0.1, 107.4, 47.85)">t</text><text class="cls-9" transform="translate(107.58 49.72) rotate(84.38)">o</text><text class="cls-9" transform="translate(108.98 63.91) rotate(84.38)">P</text><text class="cls-9" transform="matrix(0.1, 1, -1, 0.1, 109.36, 67.77)">r</text><text class="cls-9" transform="translate(109.54 69.66) rotate(84.37)">e</text><text class="cls-9" transform="translate(109.86 72.85) rotate(84.38)">s</text><text class="cls-9" transform="translate(110.15 75.83) rotate(84.37)">u</text><text class="cls-9" transform="translate(110.48 79.17) rotate(84.37)">p</text><text class="cls-9" transform="translate(110.83 82.72) rotate(84.37)">.</text><text class="cls-9" transform="translate(93.35 68.63) rotate(67.5)">C</text><text class="cls-9" transform="translate(95.02 72.65) rotate(67.5)">á<tspan x="3.22" y="0">l</tspan></text><text class="cls-9" transform="translate(96.76 76.85) rotate(67.5)">c</text><text class="cls-9" transform="matrix(0.38, 0.92, -0.92, 0.38, 97.99, 79.81)">u</text><text class="cls-9" transform="translate(99.27 82.91) rotate(67.5)">l</text><text class="cls-9" transform="translate(99.78 84.15) rotate(67.5)">o</text><text class="cls-9" transform="matrix(0.29, 0.96, -0.96, 0.29, 88.85, 35.1)">C</text><text class="cls-9" transform="matrix(0.29, 0.96, -0.96, 0.29, 90.11, 39.23)">y</text><text class="cls-9" transform="translate(90.98 42.12) rotate(73.12)">p</text><text class="cls-9" transform="matrix(0.29, 0.96, -0.96, 0.29, 92.01, 45.52)">e</text><text class="cls-9" transform="matrix(0.29, 0.96, -0.96, 0.29, 92.95, 48.61)">C</text><text class="cls-9" transform="translate(94.21 52.76) rotate(73.12)">A</text><text class="cls-9" transform="translate(95.33 56.46) rotate(73.12)">D</text><text class="cls-10" transform="translate(73.16 41.12) rotate(61.87)">C</text><text class="cls-10" transform="translate(74.62 43.86) rotate(61.87)">y</text><text class="cls-10" transform="translate(75.63 45.74) rotate(61.87)">p</text><text class="cls-10" transform="translate(76.84 48) rotate(61.87)">e</text><text class="cls-10" transform="matrix(0.47, 0.88, -0.88, 0.47, 77.92, 50.02)">C</text><text class="cls-10" transform="translate(79.38 52.77) rotate(61.87)">A</text><text class="cls-10" transform="translate(80.69 55.21) rotate(61.87)">D</text><text class="cls-10" transform="translate(82.13 57.9) rotate(61.87)">M</text><text class="cls-10" transform="matrix(0.47, 0.88, -0.88, 0.47, 83.89, 61.19)">E</text><text class="cls-10" transform="translate(85.13 63.52) rotate(61.87)">P</text><text class="cls-9" transform="translate(178.09 143.34) rotate(19.69)">A</text><text class="cls-9" transform="translate(181.74 144.65) rotate(19.69)">l</text><text class="cls-9" transform="matrix(0.94, 0.34, -0.34, 0.94, 183.01, 145.1)">l</text><text class="cls-9" transform="translate(184.26 145.55) rotate(19.69)">p</text><text class="cls-9" transform="translate(187.62 146.75) rotate(19.69)">l</text><text class="cls-9" transform="translate(188.87 147.2) rotate(19.69)">a</text><text class="cls-9" transform="translate(191.91 148.29) rotate(19.69)">n</text><text class="cls-11" transform="matrix(0.8, -0.6, 0.6, 0.8, 22.2, 191.48)">P</text><text class="cls-11" transform="translate(25.07 189.35) rotate(-36.57)">o</text><text class="cls-11" transform="translate(27.6 187.47) rotate(-36.56)">w</text><text class="cls-11" transform="matrix(0.8, -0.6, 0.6, 0.8, 30.94, 185)">e</text><text class="cls-11" transform="matrix(0.8, -0.6, 0.6, 0.8, 33.32, 183.23)">r</text><text class="cls-11" transform="translate(34.79 182.14) rotate(-36.56)">p</text><text class="cls-11" transform="matrix(0.8, -0.6, 0.6, 0.8, 37.41, 180.2)">o</text><text class="cls-11" transform="matrix(0.8, -0.6, 0.6, 0.8, 39.94, 178.32)">i</text><text class="cls-11" transform="matrix(0.8, -0.6, 0.6, 0.8, 40.92, 177.59)">n</text><text class="cls-11" transform="translate(43.39 175.76) rotate(-36.57)">t</text><text class="cls-9" transform="matrix(0.74, -0.67, 0.67, 0.74, 34.08, 196.7)">E</text><text class="cls-9" transform="matrix(0.74, -0.67, 0.67, 0.74, 36.78, 194.25)">x</text><text class="cls-9" transform="translate(39.09 192.15) rotate(-42.19)">c</text><text class="cls-9" transform="matrix(0.74, -0.67, 0.67, 0.74, 41.47, 190)">e</text><text class="cls-9" transform="translate(43.88 187.82) rotate(-42.19)">l</text><text class="cls-9" transform="translate(4.21 149.4) rotate(-14.06)">K</text><text class="cls-9" transform="translate(8.09 148.43) rotate(-14.06)">e</text><text class="cls-9" transform="translate(11.2 147.65) rotate(-14.06)">y</text><text class="cls-9" transform="translate(14.13 146.92) rotate(-14.06)">n</text><text class="cls-9" transform="translate(17.38 146.1) rotate(-14.06)">o</text><text class="cls-9" transform="matrix(0.97, -0.24, 0.24, 0.97, 20.7, 145.27)">t</text><text class="cls-9" transform="matrix(0.97, -0.24, 0.24, 0.97, 22.55, 144.81)">e</text><text class="cls-9" transform="translate(18.09 180.57) rotate(-30.94)">A</text><text class="cls-9" transform="translate(21.43 178.57) rotate(-30.94)">c</text><text class="cls-9" transform="translate(24.19 176.91) rotate(-30.94)">c</text><text class="cls-9" transform="matrix(0.86, -0.51, 0.51, 0.86, 26.96, 175.25)">e</text><text class="cls-9" transform="matrix(0.86, -0.51, 0.51, 0.86, 29.73, 173.59)">s</text><text class="cls-9" transform="translate(32.28 172.06) rotate(-30.94)">s</text><text class="cls-9" transform="translate(14.46 169.71) rotate(-25.32)">P</text><text class="cls-9" transform="matrix(0.9, -0.43, 0.43, 0.9, 17.97, 168.05)">a</text><text class="cls-9" transform="translate(20.88 166.67) rotate(-25.31)">g</text><text class="cls-9" transform="translate(24 165.2) rotate(-25.31)">e</text><text class="cls-9" transform="matrix(0.9, -0.43, 0.43, 0.9, 26.91, 163.82)">s</text><text class="cls-9" transform="translate(6.66 160.65) rotate(-19.69)">N</text><text class="cls-9" transform="translate(10.77 159.18) rotate(-19.69)">u</text><text class="cls-9" transform="translate(13.9 158.06) rotate(-19.69)">m</text><text class="cls-9" transform="translate(18.73 156.33) rotate(-19.69)">b</text><text class="cls-9" transform="matrix(0.94, -0.34, 0.34, 0.94, 22.06, 155.14)">e</text><text class="cls-9" transform="matrix(0.94, -0.34, 0.34, 0.94, 25.11, 154.05)">r</text><text class="cls-9" transform="translate(26.97 153.38) rotate(-19.69)">s</text><text class="cls-9" transform="matrix(0.43, -0.9, 0.9, 0.43, 145.27, 63.36)">A</text><text class="cls-9" transform="translate(146.93 59.85) rotate(-64.69)">u</text><text class="cls-9" transform="translate(148.35 56.84) rotate(-64.68)">t</text><text class="cls-9" transform="translate(149.17 55.12) rotate(-64.69)">o</text><text class="cls-9" transform="translate(150.64 52) rotate(-64.69)">C</text><text class="cls-9" transform="matrix(0.43, -0.9, 0.9, 0.43, 152.48, 48.11)">A</text><text class="cls-9" transform="translate(154.15 44.59) rotate(-64.69)">D</text><text class="cls-9" transform="matrix(0.43, -0.9, 0.9, 0.43, 135.23, 84.59)">C</text><text class="cls-9" transform="translate(137.07 80.69) rotate(-64.68)">A</text><text class="cls-9" transform="translate(138.74 77.17) rotate(-64.69)">D</text><text class="cls-9" transform="translate(99.97 171.77) rotate(-70.31)">R</text><text class="cls-9" transform="translate(101.35 167.91) rotate(-70.31)">a</text><text class="cls-9" transform="translate(102.44 164.87) rotate(-70.31)">s</text><text class="cls-9" transform="translate(103.46 162.04) rotate(-70.31)">t</text><text class="cls-9" transform="translate(104.09 160.26) rotate(-70.31)">e</text><text class="cls-9" transform="matrix(0.34, -0.94, 0.94, 0.34, 105.18, 157.22)">r</text><text class="cls-11" transform="translate(76.72 197.76) rotate(-61.87)">P</text><text class="cls-11" transform="translate(78.4 194.62) rotate(-61.88)">i</text><text class="cls-11" transform="matrix(0.47, -0.88, 0.88, 0.47, 78.97, 193.54)">x</text><text class="cls-11" transform="translate(80.31 191.04) rotate(-61.87)">e</text><text class="cls-11" transform="translate(81.7 188.44) rotate(-61.88)">l</text><text class="cls-11" transform="matrix(0.47, -0.88, 0.88, 0.47, 82.28, 187.34)">m</text><text class="cls-11" transform="translate(84.49 183.21) rotate(-61.87)">a</text><text class="cls-11" transform="matrix(0.47, -0.88, 0.88, 0.47, 85.89, 180.6)">t</text><text class="cls-11" transform="translate(86.7 179.08) rotate(-61.88)">o</text><text class="cls-11" transform="translate(88.19 176.29) rotate(-61.87)">r</text><text class="cls-11" transform="matrix(0.24, -0.97, 0.97, 0.24, 96.94, 205.48)">P</text><text class="cls-11" transform="matrix(0.24, -0.97, 0.97, 0.24, 97.8, 202.01)">h</text><text class="cls-11" transform="translate(98.55 199.05) rotate(-75.93)">o</text><text class="cls-11" transform="translate(99.31 196) rotate(-75.94)">t</text><text class="cls-11" transform="translate(99.74 194.29) rotate(-75.94)">o</text><text class="cls-11" transform="translate(100.5 191.24) rotate(-75.94)">s</text><text class="cls-11" transform="matrix(0.24, -0.97, 0.97, 0.24, 101.17, 188.57)">h</text><text class="cls-11" transform="translate(101.91 185.61) rotate(-75.93)">o</text><text class="cls-11" transform="matrix(0.24, -0.97, 0.97, 0.24, 102.68, 182.55)">p</text><text class="cls-9" transform="translate(114.42 180.05) rotate(90)">C<tspan x="4.34" y="0">o</tspan><tspan x="7.8" y="0">r</tspan><tspan x="9.68" y="0">e</tspan><tspan x="12.91" y="0">l</tspan><tspan x="14.24" y="0">D</tspan><tspan x="18.44" y="0">r</tspan><tspan x="20.46" y="0">a</tspan><tspan x="23.67" y="0">w</tspan></text><text class="cls-9" transform="translate(119.41 152.87) rotate(81.56)">V</text><text class="cls-9" transform="translate(119.9 156.17) rotate(81.56)">e</text><text class="cls-9" transform="translate(120.37 159.34) rotate(81.56)">c</text><text class="cls-9" transform="translate(120.84 162.51) rotate(81.56)">t</text><text class="cls-9" transform="matrix(0.15, 0.99, -0.99, 0.15, 121.12, 164.41)">o</text><text class="cls-9" transform="translate(121.63 167.81) rotate(81.56)">r</text><text class="cls-9" transform="translate(121.92 169.78) rotate(81.56)">i</text><text class="cls-9" transform="translate(122.12 171.1) rotate(81.56)">a</text><text class="cls-9" transform="translate(122.59 174.29) rotate(81.56)">l</text><text class="cls-9" transform="translate(129.71 180.35) rotate(75.93)">I</text><text class="cls-9" transform="translate(130.09 181.87) rotate(75.93)">l</text><text class="cls-9" transform="translate(130.41 183.15) rotate(75.94)">l</text><text class="cls-9" transform="translate(130.73 184.44) rotate(75.94)">u</text><text class="cls-9" transform="translate(131.54 187.67) rotate(75.94)">s</text><text class="cls-9" transform="matrix(0.24, 0.97, -0.97, 0.24, 132.27, 190.59)">t</text><text class="cls-9" transform="translate(132.73 192.41) rotate(75.94)">r</text><text class="cls-9" transform="translate(133.21 194.35) rotate(75.94)">a</text><text class="cls-9" transform="translate(133.99 197.46) rotate(75.94)">t</text><text class="cls-9" transform="matrix(0.24, 0.97, -0.97, 0.24, 134.46, 199.31)">o</text><text class="cls-9" transform="translate(135.29 202.65) rotate(75.94)">r</text><text class="cls-9" transform="translate(75.88 81.4) rotate(45)">E<tspan x="3.67" y="0">n</tspan><tspan x="7.01" y="0">e</tspan><tspan x="10.23" y="0">r</tspan><tspan x="12.04" y="0">g</tspan><tspan x="15.49" y="0">í</tspan><tspan x="16.82" y="0">a</tspan></text><text class="cls-9" transform="translate(51.32 68.28) rotate(39.38)">C</text><text class="cls-9" transform="matrix(0.77, 0.63, -0.63, 0.77, 54.66, 71.02)">E</text><text class="cls-9" transform="translate(57.49 73.35) rotate(39.37)">3</text><text class="cls-9" transform="translate(60.07 75.46) rotate(39.38)">X</text><text class="cls-9" transform="translate(62.06 56.02) rotate(50.62)">H</text><text class="cls-9" transform="translate(64.82 59.39) rotate(50.62)">U</text><text class="cls-9" transform="matrix(0.63, 0.77, -0.77, 0.63, 67.56, 62.72)">L</text><text class="cls-9" transform="translate(69.68 65.3) rotate(50.63)">C</text><text class="cls-9" transform="matrix(0.98, 0.2, -0.2, 0.98, 65.89, 111.15)">S</text><text class="cls-9" transform="translate(69.7 111.91) rotate(11.25)">.</text><text class="cls-9" transform="matrix(0.98, 0.2, -0.2, 0.98, 71.33, 112.24)">O</text><text class="cls-9" transform="matrix(0.98, 0.2, -0.2, 0.98, 75.79, 113.12)">.</text><text class="cls-9" transform="translate(42.93 82.13) rotate(28.13)">L</text><text class="cls-9" transform="translate(45.88 83.7) rotate(28.12)">i</text><text class="cls-9" transform="translate(47.05 84.32) rotate(28.13)">n</text><text class="cls-9" transform="translate(49.98 85.89) rotate(28.12)">u</text><text class="cls-9" transform="translate(52.93 87.47) rotate(28.13)">x</text></g></g></svg>